<svg version="1.1" id="Layer_1" xmlns="http://www.w3.org/2000/svg" xmlns:xlink="http://www.w3.org/1999/xlink" x="0px" y="0px"
	 width="100%" viewBox="0 0 1500 1500" enable-background="new 0 0 1500 1500" xml:space="preserve">
<path fill="#FFFFFF" opacity="1.000000" stroke="none" 
	d="
M878.000000,1501.000000 
	C585.333374,1501.000000 293.166779,1501.000000 1.000118,1501.000000 
	C1.000078,1001.000122 1.000078,501.000275 1.000039,1.000319 
	C500.999756,1.000213 1000.999512,1.000213 1500.999512,1.000106 
	C1500.999634,500.999664 1500.999634,1000.999329 1500.999756,1500.999512 
	C1293.500000,1501.000000 1086.000000,1501.000000 878.000000,1501.000000 
M555.243347,1376.247192 
	C605.487000,1392.123901 656.958191,1401.494751 709.505920,1404.793335 
	C767.836426,1408.454590 825.778687,1404.869507 882.962036,1392.724365 
	C1035.318604,1360.365845 1161.415649,1284.060669 1259.700806,1163.327759 
	C1351.978394,1049.974487 1399.929810,919.336365 1405.670044,773.343323 
	C1407.812866,718.844055 1402.815674,664.865967 1391.099121,611.550476 
	C1364.726929,491.544952 1309.461304,386.614838 1224.181519,298.333527 
	C1106.413696,176.420776 962.280090,109.497078 793.131653,97.318047 
	C731.292908,92.865540 669.881042,97.543793 609.416321,111.332092 
	C457.921295,145.878830 333.263702,223.881180 236.752014,345.573425 
	C153.766068,450.210968 107.883926,569.815857 97.761475,703.066284 
	C93.561523,758.353760 96.534637,813.280640 106.328163,867.805054 
	C117.578049,930.437622 137.128464,990.441162 166.570755,1046.878662 
	C251.199051,1209.100952 380.591064,1318.858032 555.243347,1376.247192 
z"/>
<path fill="#D61E3E" opacity="1.000000" stroke="none" 
	d="
M554.857056,1376.147095 
	C380.591064,1318.858032 251.199051,1209.100952 166.570755,1046.878662 
	C137.128464,990.441162 117.578049,930.437622 106.328163,867.805054 
	C96.534637,813.280640 93.561523,758.353760 97.761475,703.066284 
	C107.883926,569.815857 153.766068,450.210968 236.752014,345.573425 
	C333.263702,223.881180 457.921295,145.878830 609.416321,111.332092 
	C669.881042,97.543793 731.292908,92.865540 793.131653,97.318047 
	C962.280090,109.497078 1106.413696,176.420776 1224.181519,298.333527 
	C1309.461304,386.614838 1364.726929,491.544952 1391.099121,611.550476 
	C1402.815674,664.865967 1407.812866,718.844055 1405.670044,773.343323 
	C1399.929810,919.336365 1351.978394,1049.974487 1259.700806,1163.327759 
	C1161.415649,1284.060669 1035.318604,1360.365845 882.962036,1392.724365 
	C825.778687,1404.869507 767.836426,1408.454590 709.505920,1404.793335 
	C656.958191,1401.494751 605.487000,1392.123901 554.857056,1376.147095 
M613.028381,281.920563 
	C606.531433,281.925140 600.034424,281.954285 593.537537,281.930084 
	C563.369080,281.817841 539.479431,294.193756 521.689148,318.364746 
	C416.558777,461.201691 311.484955,604.080261 206.305450,746.881104 
	C204.040359,749.956360 203.916351,751.913818 206.242966,755.052795 
	C231.033539,788.499268 255.648697,822.075684 280.317810,855.612183 
	C360.936768,965.209839 441.535431,1074.822510 522.201172,1184.385742 
	C535.579590,1202.556763 553.207520,1214.855347 575.622192,1218.317261 
	C588.175171,1220.256104 601.148193,1219.474976 614.870605,1220.045166 
	C712.364319,1220.055176 809.858154,1219.969238 907.351562,1220.130615 
	C938.534058,1220.182251 962.858032,1207.528320 981.217041,1182.553589 
	C1085.890503,1040.161743 1190.605835,897.800476 1295.408691,755.503906 
	C1297.916992,752.098450 1297.982788,749.986572 1295.442383,746.537048 
	C1191.034424,604.777100 1086.656006,462.995392 982.503357,321.047882 
	C963.100708,294.604279 937.887634,281.631226 904.908386,281.773193 
	C809.582947,282.183624 714.254517,281.916687 618.927307,281.924103 
	C617.263855,281.924225 615.600342,282.029480 613.028381,281.920563 
z"/>
<path fill="#FFFFFF" opacity="1.000000" stroke="none" 
	d="
M613.936890,282.085632 
	C615.600342,282.029480 617.263855,281.924225 618.927307,281.924103 
	C714.254517,281.916687 809.582947,282.183624 904.908386,281.773193 
	C937.887634,281.631226 963.100708,294.604279 982.503357,321.047882 
	C1086.656006,462.995392 1191.034424,604.777100 1295.442383,746.537048 
	C1297.982788,749.986572 1297.916992,752.098450 1295.408691,755.503906 
	C1190.605835,897.800476 1085.890503,1040.161743 981.217041,1182.553589 
	C962.858032,1207.528320 938.534058,1220.182251 907.351562,1220.130615 
	C809.858154,1219.969238 712.364319,1220.055176 614.670654,1219.702881 
	C637.855652,1215.499268 656.718506,1204.024170 670.862488,1185.114258 
	C691.542053,1157.466309 711.990662,1129.645142 732.438110,1101.824707 
	C738.804077,1093.163330 744.847961,1084.265259 751.331055,1075.265381 
	C830.198486,968.136230 908.756775,861.204285 987.437378,754.362366 
	C989.709534,751.277039 988.809692,749.594849 986.967285,747.089783 
	C923.640076,660.988403 860.383240,574.835266 797.078064,488.717621 
	C781.800720,467.934967 766.390198,447.250153 751.017761,426.191193 
	C750.401550,424.863129 749.889404,423.804596 749.203735,422.873932 
	C724.970154,389.981598 700.606201,357.184509 676.523560,324.182098 
	C665.465698,309.028656 652.914795,295.741699 635.128235,288.661011 
	C628.277588,285.933838 621.012939,284.246674 613.936890,282.085632 
z"/>
<path fill="#B9BBBA" opacity="1.000000" stroke="none" 
	d="
M613.482666,282.003113 
	C621.012939,284.246674 628.277588,285.933838 635.128235,288.661011 
	C652.914795,295.741699 665.465698,309.028656 676.523560,324.182098 
	C700.606201,357.184509 724.970154,389.981598 749.203735,422.873932 
	C749.889404,423.804596 750.401550,424.863129 750.727295,426.404449 
	C749.933228,427.592377 749.376526,428.215881 748.883911,428.886475 
	C670.876160,535.081665 592.886841,641.290405 514.796021,747.424500 
	C512.674255,750.308167 512.929138,752.019897 514.933838,754.744446 
	C582.956543,847.191284 650.880432,939.710754 718.852051,1032.195068 
	C729.499329,1046.682251 740.306274,1061.051758 751.039368,1075.475586 
	C744.847961,1084.265259 738.804077,1093.163330 732.438110,1101.824707 
	C711.990662,1129.645142 691.542053,1157.466309 670.862488,1185.114258 
	C656.718506,1204.024170 637.855652,1215.499268 614.201294,1219.639893 
	C601.148193,1219.474976 588.175171,1220.256104 575.622192,1218.317261 
	C553.207520,1214.855347 535.579590,1202.556763 522.201172,1184.385742 
	C441.535431,1074.822510 360.936768,965.209839 280.317810,855.612183 
	C255.648697,822.075684 231.033539,788.499268 206.242966,755.052795 
	C203.916351,751.913818 204.040359,749.956360 206.305450,746.881104 
	C311.484955,604.080261 416.558777,461.201691 521.689148,318.364746 
	C539.479431,294.193756 563.369080,281.817841 593.537537,281.930084 
	C600.034424,281.954285 606.531433,281.925140 613.482666,282.003113 
z"/>
<path fill="#D61E3E" opacity="1.000000" stroke="none" 
	d="
M751.331055,1075.265381 
	C740.306274,1061.051758 729.499329,1046.682251 718.852051,1032.195068 
	C650.880432,939.710754 582.956543,847.191284 514.933838,754.744446 
	C512.929138,752.019897 512.674255,750.308167 514.796021,747.424500 
	C592.886841,641.290405 670.876160,535.081665 748.883911,428.886475 
	C749.376526,428.215881 749.933228,427.592377 750.750427,426.733612 
	C766.390198,447.250153 781.800720,467.934967 797.078064,488.717621 
	C860.383240,574.835266 923.640076,660.988403 986.967285,747.089783 
	C988.809692,749.594849 989.709534,751.277039 987.437378,754.362366 
	C908.756775,861.204285 830.198486,968.136230 751.331055,1075.265381 
z"/>
</svg>